<mxfile host="65bd71144e">
    <diagram id="ulh8K6jCt4z24TxIr9AC" name="Page-2">
        <mxGraphModel dx="414" dy="280" grid="1" gridSize="10" guides="1" tooltips="1" connect="1" arrows="1" fold="1" page="1" pageScale="1" pageWidth="850" pageHeight="1100" math="0" shadow="0">
            <root>
                <mxCell id="0"/>
                <mxCell id="1" parent="0"/>
                <mxCell id="yxVfyvVakdwUZtZZ-cik-14" value="Users" style="swimlane;childLayout=stackLayout;horizontal=1;startSize=30;horizontalStack=0;rounded=1;fontSize=14;fontStyle=0;strokeWidth=2;resizeParent=0;resizeLast=1;shadow=0;dashed=0;align=center;fontColor=#FF0000;" vertex="1" parent="1">
                    <mxGeometry x="40" y="70" width="160" height="140" as="geometry"/>
                </mxCell>
                <mxCell id="yxVfyvVakdwUZtZZ-cik-15" value="user_id&#10;username&#10;password&#10;email&#10;user_type" style="align=left;strokeColor=none;fillColor=none;spacingLeft=4;fontSize=15;verticalAlign=top;resizable=0;rotatable=0;part=1;fontColor=#FF0000;" vertex="1" parent="yxVfyvVakdwUZtZZ-cik-14">
                    <mxGeometry y="30" width="160" height="110" as="geometry"/>
                </mxCell>
                <mxCell id="maifmBWBMHOGJy0tBZYN-1" value="Accounts" style="swimlane;childLayout=stackLayout;horizontal=1;startSize=30;horizontalStack=0;rounded=1;fontSize=14;fontStyle=0;strokeWidth=2;resizeParent=0;resizeLast=1;shadow=0;dashed=0;align=center;fontColor=#FF0000;" vertex="1" parent="1">
                    <mxGeometry x="310" y="180" width="160" height="140" as="geometry"/>
                </mxCell>
                <mxCell id="maifmBWBMHOGJy0tBZYN-2" value="account_id&#10;user_id&#10;balance&#10;created_at&#10;" style="align=left;strokeColor=none;fillColor=none;spacingLeft=4;fontSize=15;verticalAlign=top;resizable=0;rotatable=0;part=1;fontColor=#FF0000;" vertex="1" parent="maifmBWBMHOGJy0tBZYN-1">
                    <mxGeometry y="30" width="160" height="110" as="geometry"/>
                </mxCell>
                <mxCell id="tqGMgvcC2-SPl3S--OMa-1" value="Transactions" style="swimlane;childLayout=stackLayout;horizontal=1;startSize=30;horizontalStack=0;rounded=1;fontSize=14;fontStyle=0;strokeWidth=2;resizeParent=0;resizeLast=1;shadow=0;dashed=0;align=center;fontColor=#FF0000;" vertex="1" parent="1">
                    <mxGeometry x="560" y="170" width="160" height="140" as="geometry"/>
                </mxCell>
                <mxCell id="tqGMgvcC2-SPl3S--OMa-2" value="transaction_id&#10;from_account_id&#10;to_account_id&#10;amount&#10;transaction_date&#10;&#10;" style="align=left;strokeColor=none;fillColor=none;spacingLeft=4;fontSize=15;verticalAlign=top;resizable=0;rotatable=0;part=1;fontColor=#FF0000;" vertex="1" parent="tqGMgvcC2-SPl3S--OMa-1">
                    <mxGeometry y="30" width="160" height="110" as="geometry"/>
                </mxCell>
                <mxCell id="tqGMgvcC2-SPl3S--OMa-3" value="Orders" style="swimlane;childLayout=stackLayout;horizontal=1;startSize=30;horizontalStack=0;rounded=1;fontSize=14;fontStyle=0;strokeWidth=2;resizeParent=0;resizeLast=1;shadow=0;dashed=0;align=center;fontColor=#FF0000;" vertex="1" parent="1">
                    <mxGeometry x="340" y="10" width="160" height="140" as="geometry"/>
                </mxCell>
                <mxCell id="tqGMgvcC2-SPl3S--OMa-4" value="order_id&#10;merchant_id&#10;buyer_id&#10;amount&#10;order_date" style="align=left;strokeColor=none;fillColor=none;spacingLeft=4;fontSize=15;verticalAlign=top;resizable=0;rotatable=0;part=1;fontColor=#FF0000;" vertex="1" parent="tqGMgvcC2-SPl3S--OMa-3">
                    <mxGeometry y="30" width="160" height="110" as="geometry"/>
                </mxCell>
                <mxCell id="74avNXLz6Qa-p2GN-K4L-5" value="" style="endArrow=none;html=1;fontSize=15;fontColor=#FF0000;entryX=-0.018;entryY=0.331;entryDx=0;entryDy=0;exitX=1.006;exitY=0.132;exitDx=0;exitDy=0;exitPerimeter=0;entryPerimeter=0;" edge="1" parent="1" source="yxVfyvVakdwUZtZZ-cik-15" target="tqGMgvcC2-SPl3S--OMa-4">
                    <mxGeometry width="50" height="50" relative="1" as="geometry">
                        <mxPoint x="250" y="150" as="sourcePoint"/>
                        <mxPoint x="300" y="100" as="targetPoint"/>
                    </mxGeometry>
                </mxCell>
                <mxCell id="74avNXLz6Qa-p2GN-K4L-6" value="1" style="text;html=1;strokeColor=none;fillColor=none;align=center;verticalAlign=middle;whiteSpace=wrap;rounded=0;fontSize=15;fontColor=#FF0000;" vertex="1" parent="1">
                    <mxGeometry x="180" y="80" width="60" height="30" as="geometry"/>
                </mxCell>
                <mxCell id="74avNXLz6Qa-p2GN-K4L-7" value="M" style="text;html=1;strokeColor=none;fillColor=none;align=center;verticalAlign=middle;whiteSpace=wrap;rounded=0;fontSize=15;fontColor=#FF0000;" vertex="1" parent="1">
                    <mxGeometry x="280" y="50" width="60" height="30" as="geometry"/>
                </mxCell>
                <mxCell id="74avNXLz6Qa-p2GN-K4L-8" value="" style="endArrow=none;html=1;fontSize=15;fontColor=#FF0000;entryX=0;entryY=0.5;entryDx=0;entryDy=0;exitX=0.385;exitY=1.176;exitDx=0;exitDy=0;exitPerimeter=0;" edge="1" parent="1" source="74avNXLz6Qa-p2GN-K4L-6" target="tqGMgvcC2-SPl3S--OMa-4">
                    <mxGeometry width="50" height="50" relative="1" as="geometry">
                        <mxPoint x="250" y="150" as="sourcePoint"/>
                        <mxPoint x="300" y="100" as="targetPoint"/>
                    </mxGeometry>
                </mxCell>
                <mxCell id="74avNXLz6Qa-p2GN-K4L-9" value="M" style="text;html=1;strokeColor=none;fillColor=none;align=center;verticalAlign=middle;whiteSpace=wrap;rounded=0;fontSize=15;fontColor=#FF0000;" vertex="1" parent="1">
                    <mxGeometry x="290" y="100" width="60" height="30" as="geometry"/>
                </mxCell>
                <mxCell id="74avNXLz6Qa-p2GN-K4L-10" value="1" style="text;html=1;strokeColor=none;fillColor=none;align=center;verticalAlign=middle;whiteSpace=wrap;rounded=0;fontSize=15;fontColor=#FF0000;" vertex="1" parent="1">
                    <mxGeometry x="190" y="110" width="60" height="30" as="geometry"/>
                </mxCell>
                <mxCell id="74avNXLz6Qa-p2GN-K4L-11" value="" style="endArrow=none;html=1;fontSize=15;fontColor=#FF0000;entryX=0;entryY=0.332;entryDx=0;entryDy=0;entryPerimeter=0;exitX=0.167;exitY=0.333;exitDx=0;exitDy=0;exitPerimeter=0;" edge="1" parent="1" source="74avNXLz6Qa-p2GN-K4L-10" target="maifmBWBMHOGJy0tBZYN-2">
                    <mxGeometry width="50" height="50" relative="1" as="geometry">
                        <mxPoint x="250" y="170" as="sourcePoint"/>
                        <mxPoint x="300" y="120" as="targetPoint"/>
                    </mxGeometry>
                </mxCell>
                <mxCell id="74avNXLz6Qa-p2GN-K4L-12" value="1" style="text;html=1;strokeColor=none;fillColor=none;align=center;verticalAlign=middle;whiteSpace=wrap;rounded=0;fontSize=15;fontColor=#FF0000;" vertex="1" parent="1">
                    <mxGeometry x="177" y="131" width="60" height="30" as="geometry"/>
                </mxCell>
                <mxCell id="74avNXLz6Qa-p2GN-K4L-14" value="1" style="text;html=1;strokeColor=none;fillColor=none;align=center;verticalAlign=middle;whiteSpace=wrap;rounded=0;fontSize=15;fontColor=#FF0000;" vertex="1" parent="1">
                    <mxGeometry x="260" y="225" width="60" height="30" as="geometry"/>
                </mxCell>
                <mxCell id="74avNXLz6Qa-p2GN-K4L-19" value="" style="endArrow=none;html=1;fontSize=15;fontColor=#FF0000;entryX=0.005;entryY=0.322;entryDx=0;entryDy=0;entryPerimeter=0;exitX=1.029;exitY=0.117;exitDx=0;exitDy=0;exitPerimeter=0;" edge="1" parent="1" source="maifmBWBMHOGJy0tBZYN-2" target="tqGMgvcC2-SPl3S--OMa-2">
                    <mxGeometry width="50" height="50" relative="1" as="geometry">
                        <mxPoint x="440" y="220" as="sourcePoint"/>
                        <mxPoint x="490" y="170" as="targetPoint"/>
                    </mxGeometry>
                </mxCell>
                <mxCell id="74avNXLz6Qa-p2GN-K4L-20" value="M" style="text;html=1;strokeColor=none;fillColor=none;align=center;verticalAlign=middle;whiteSpace=wrap;rounded=0;fontSize=15;fontColor=#FF0000;" vertex="1" parent="1">
                    <mxGeometry x="515" y="208" width="60" height="30" as="geometry"/>
                </mxCell>
                <mxCell id="74avNXLz6Qa-p2GN-K4L-21" value="1" style="text;html=1;strokeColor=none;fillColor=none;align=center;verticalAlign=middle;whiteSpace=wrap;rounded=0;fontSize=15;fontColor=#FF0000;" vertex="1" parent="1">
                    <mxGeometry x="449" y="198" width="60" height="30" as="geometry"/>
                </mxCell>
                <mxCell id="74avNXLz6Qa-p2GN-K4L-22" value="" style="endArrow=none;html=1;fontSize=15;fontColor=#FF0000;entryX=0;entryY=0.5;entryDx=0;entryDy=0;exitX=1.025;exitY=0.117;exitDx=0;exitDy=0;exitPerimeter=0;" edge="1" parent="1" source="maifmBWBMHOGJy0tBZYN-2" target="tqGMgvcC2-SPl3S--OMa-2">
                    <mxGeometry width="50" height="50" relative="1" as="geometry">
                        <mxPoint x="479" y="230" as="sourcePoint"/>
                        <mxPoint x="490" y="170" as="targetPoint"/>
                    </mxGeometry>
                </mxCell>
                <mxCell id="74avNXLz6Qa-p2GN-K4L-23" value="M" style="text;html=1;strokeColor=none;fillColor=none;align=center;verticalAlign=middle;whiteSpace=wrap;rounded=0;fontSize=15;fontColor=#FF0000;" vertex="1" parent="1">
                    <mxGeometry x="520" y="248" width="60" height="30" as="geometry"/>
                </mxCell>
                <mxCell id="74avNXLz6Qa-p2GN-K4L-24" value="1" style="text;html=1;strokeColor=none;fillColor=none;align=center;verticalAlign=middle;whiteSpace=wrap;rounded=0;fontSize=15;fontColor=#FF0000;" vertex="1" parent="1">
                    <mxGeometry x="448" y="223" width="60" height="30" as="geometry"/>
                </mxCell>
            </root>
        </mxGraphModel>
    </diagram>
</mxfile>